<?xml version="1.0" encoding="utf-8"?>
<!-- Generator: Adobe Illustrator 28.1.0, SVG Export Plug-In . SVG Version: 6.00 Build 0)  -->
<svg version="1.1" id="レイヤー_1" xmlns="http://www.w3.org/2000/svg" xmlns:xlink="http://www.w3.org/1999/xlink" x="0px"
	 y="0px" viewBox="0 0 52.87 16.1" style="enable-background:new 0 0 52.87 16.1;" xml:space="preserve">
<g>
	<path d="M13.84,15.18c0,0.31-0.07,0.59-0.2,0.86c-1.37-0.09-2.31-0.14-2.8-0.14l-2.1,0.14c0-0.31,0.07-0.59,0.2-0.86
		c0.39-0.09,0.75-0.23,1.1-0.4c-0.41-2.12-0.65-3.33-0.72-3.62c-1.56-0.04-2.59-0.06-3.09-0.06s-1.08,0.03-1.75,0.08l-1.76,3.6
		l1.72,0.4c0,0.31-0.07,0.59-0.2,0.86C3.17,15.95,2.39,15.9,1.9,15.9L0,16.04c0-0.31,0.07-0.59,0.2-0.86
		c0.43-0.12,0.82-0.31,1.18-0.56c2.49-4.4,4.49-8.25,5.98-11.56L7.2,2.42C7.77,2.14,8.39,2,9.04,2c1.25,5.67,2.3,9.96,3.14,12.88
		L13.84,15.18z M4.98,10.14c0.63,0.04,1.27,0.06,1.93,0.06s1.39-0.01,2.19-0.04C8.94,9.4,8.5,7.57,7.78,4.68
		C7.07,5.97,6.14,7.79,4.98,10.14z"/>
	<path d="M14.32,1.5c0-0.31,0.07-0.59,0.2-0.86c0.76-0.11,1.5-0.32,2.22-0.64c0.19,0,0.35,0.08,0.5,0.25
		c0.15,0.17,0.22,0.38,0.22,0.65l-0.9,8.96l0.2,0.12c0.49-1.2,0.99-2.13,1.5-2.79c0.51-0.66,1.17-0.99,2-0.99
		c0.83,0,1.52,0.3,2.08,0.91c0.56,0.61,0.84,1.43,0.84,2.47c0,1.72-0.51,3.22-1.54,4.5c-1.03,1.28-2.3,1.92-3.82,1.92l-3.12-0.2
		h-0.38c0.21-0.89,0.35-1.55,0.4-1.96c0.28-2,0.63-6.11,1.06-12.34H14.32z M21.66,10.14c0-0.59-0.13-1.12-0.4-1.59
		c-0.27-0.47-0.57-0.79-0.9-0.95H19.4c-0.52,0.11-1.08,0.69-1.68,1.76c-0.45,0.84-0.82,1.61-1.1,2.32c-0.04,0.63-0.14,1.6-0.3,2.92
		h3.14c0.52-0.09,1.02-0.61,1.49-1.55C21.42,12.11,21.66,11.14,21.66,10.14z"/>
	<path d="M32.73,12.68c-0.38,0.91-0.97,1.69-1.78,2.34C30.14,15.67,29.19,16,28.08,16c-2.28,0-3.42-1.24-3.42-3.72
		c0-0.93,0.19-1.85,0.57-2.76s0.97-1.69,1.78-2.34c0.81-0.65,1.76-0.98,2.87-0.98c2.28,0,3.42,1.24,3.42,3.72
		C33.3,10.85,33.11,11.77,32.73,12.68z M27.6,14.56l0.16,0.04h1.92c0.56-0.21,1.05-0.73,1.48-1.54c0.43-0.81,0.64-1.65,0.64-2.5
		c0-1.05-0.19-1.8-0.56-2.24c-0.33-0.39-0.63-0.61-0.88-0.68L30.2,7.6h-1.92c-0.56,0.21-1.05,0.73-1.48,1.54
		c-0.43,0.81-0.64,1.7-0.64,2.65s0.18,1.64,0.53,2.05C27.04,14.25,27.35,14.49,27.6,14.56z"/>
	<path d="M45.08,14.6c0,0.31-0.07,0.59-0.2,0.86c-0.89,0.11-1.7,0.32-2.42,0.64c-0.2,0-0.37-0.07-0.51-0.22
		c-0.14-0.15-0.21-0.37-0.21-0.68l0.38-2.86l-0.2-0.12c-0.41,0.95-1.03,1.81-1.84,2.6C39.27,15.61,38.35,16,37.32,16
		c-0.49,0-0.89-0.07-1.18-0.2c-0.29-0.13-0.46-0.27-0.5-0.4l-0.08-0.2c0.29-2.63,0.49-5.16,0.6-7.6h-1.38c0-0.31,0.07-0.59,0.2-0.86
		c0.76-0.11,1.5-0.32,2.22-0.64c0.19,0,0.35,0.08,0.5,0.25c0.15,0.17,0.22,0.38,0.22,0.65c-0.29,1.87-0.55,4.4-0.76,7.6h1.22
		c0.55,0,1.19-0.43,1.94-1.3c0.75-0.87,1.33-1.8,1.76-2.8c0.19-1.71,0.37-3.14,0.54-4.3c0.67-0.2,1.3-0.3,1.9-0.3
		c-0.25,1.03-0.46,2.13-0.63,3.32c-0.17,1.19-0.33,2.98-0.49,5.38H45.08z"/>
	<path d="M51.98,6.4c0,0.32-0.07,0.72-0.2,1.2h-2.3c-0.25,2.39-0.41,4.72-0.48,7h2.4c0,0.31-0.07,0.59-0.2,0.86
		c-1.16,0.11-2.1,0.32-2.82,0.64c-0.75,0-1.12-0.3-1.12-0.9c0.43-3.25,0.69-5.79,0.8-7.6h-1.04c0-0.31,0.07-0.59,0.2-0.86
		c0.03-0.01,0.06-0.03,0.11-0.05s0.14-0.08,0.27-0.19c0.13-0.11,0.25-0.23,0.36-0.38c0.29-0.41,0.48-0.97,0.56-1.66
		c0.43-0.24,0.87-0.36,1.34-0.36c-0.07,0.76-0.15,1.56-0.26,2.4L51.98,6.4z"/>
</g>
</svg>
