<?xml version="1.0" encoding="utf-8"?>
<!-- Generator: Adobe Illustrator 28.1.0, SVG Export Plug-In . SVG Version: 6.00 Build 0)  -->
<svg version="1.1" id="レイヤー_1" xmlns="http://www.w3.org/2000/svg" xmlns:xlink="http://www.w3.org/1999/xlink" x="0px"
	 y="0px" viewBox="0 0 212.6 56.69" style="enable-background:new 0 0 212.6 56.69;" xml:space="preserve">
<g>
	<path d="M20.08,29.73v0.89c-1.53,1.7-2.94,3.11-4.22,4.22c-1.28,1.11-2.53,1.96-3.75,2.56c-1.22,0.6-2.4,0.9-3.54,0.9
		c-0.98,0-1.83-0.2-2.54-0.59c-0.71-0.39-1.24-0.96-1.6-1.72c-0.36-0.75-0.54-1.64-0.54-2.67c0-0.81,0.13-1.67,0.39-2.58
		s0.64-1.82,1.13-2.75c0.49-0.93,1.1-1.88,1.81-2.86c0.72-0.98,1.56-2.02,2.52-3.1c1-1.12,1.99-2.09,2.97-2.91
		c0.98-0.82,1.86-1.46,2.65-1.92c0.79-0.46,1.53-0.81,2.21-1.04c0.68-0.23,1.24-0.34,1.69-0.34c0.46,0,0.84,0.11,1.16,0.33
		c0.32,0.22,0.56,0.54,0.74,0.96c0.17,0.42,0.26,0.9,0.26,1.45c0,1.03-0.35,2.18-1.05,3.44c-0.7,1.26-1.58,2.48-2.62,3.66
		c-1.05,1.18-2.05,2.14-3,2.88c-0.95,0.74-1.64,1.11-2.06,1.11c-0.28,0-0.54-0.11-0.79-0.33c-0.24-0.22-0.36-0.48-0.36-0.76
		c0-0.52,0.28-1.15,0.83-1.89c0.55-0.74,1.15-1.42,1.8-2.03c0.65-0.62,1.04-0.92,1.17-0.92c0.06,0,0.1,0.03,0.1,0.08
		c0,0.08-0.05,0.22-0.14,0.42c-0.1,0.2-0.14,0.32-0.14,0.37c0,0.07,0.03,0.11,0.08,0.11c0.15,0,0.6-0.41,1.34-1.24
		c0.74-0.83,1.42-1.74,2.03-2.74s0.92-1.82,0.92-2.45c0-0.26-0.06-0.47-0.17-0.61c-0.11-0.14-0.29-0.21-0.51-0.21
		c-0.64,0-1.61,0.52-2.91,1.55c-1.3,1.03-2.63,2.35-3.99,3.95c-1.36,1.6-2.5,3.25-3.41,4.96c-0.91,1.7-1.37,3.2-1.37,4.5
		c0,0.75,0.11,1.37,0.33,1.87c0.22,0.5,0.55,0.89,0.98,1.16c0.43,0.27,0.95,0.41,1.57,0.41c1.32,0,2.82-0.52,4.5-1.54
		C16.22,33.25,18.07,31.73,20.08,29.73z"/>
	<path d="M22.87,22.08l-2.94,1.54c-0.46,0.23-0.76,0.34-0.92,0.34c-0.28,0-0.49-0.09-0.62-0.27c-0.13-0.18-0.2-0.45-0.2-0.83
		c0-0.43,0.09-0.92,0.27-1.48c0.18-0.56,0.39-0.97,0.63-1.24c0.25-0.27,0.82-0.65,1.73-1.13c0.91-0.48,2-0.96,3.27-1.44
		c1.28-0.48,2.61-0.88,3.99-1.2c1.39-0.32,2.65-0.48,3.8-0.48c0.8,0,1.39,0.13,1.78,0.38c0.38,0.26,0.57,0.93,0.57,2.02
		c0,0.59-0.2,1.25-0.61,1.98c-0.41,0.72-0.89,1.43-1.46,2.11c-0.57,0.68-1.62,1.9-3.17,3.64c0.82-0.13,1.42-0.21,1.8-0.25
		c0.38-0.04,1.1-0.11,2.15-0.23c1.21-1.75,2.19-3.15,2.94-4.19c0.75-1.04,1.38-1.91,1.9-2.6c0.52-0.69,0.83-1.08,0.93-1.18
		c0.18-0.21,0.33-0.29,0.46-0.24c0.12,0.05,0.18,0.24,0.18,0.57c0,0.37-0.04,0.68-0.12,0.92c-0.08,0.24-0.2,0.47-0.36,0.7
		s-0.25,0.36-0.26,0.38c-0.24,0.39-0.58,0.9-1.03,1.54c-0.45,0.63-0.88,1.26-1.31,1.88c-0.43,0.62-0.92,1.35-1.46,2.2
		c1.02,0.04,2.03,0.17,3.02,0.4l-2.46,3.34c-0.67-0.09-1.57-0.14-2.69-0.14c-0.27,0.55-0.49,0.98-0.64,1.29s-0.28,0.6-0.38,0.88
		c-0.1,0.28-0.16,0.54-0.16,0.77c0,0.15,0.04,0.34,0.13,0.58c0.09,0.24,0.13,0.38,0.13,0.42c0,0.18-0.13,0.38-0.4,0.58
		c-0.27,0.21-0.58,0.38-0.94,0.54c-0.36,0.15-0.64,0.23-0.84,0.23c-0.34,0-0.51-0.26-0.51-0.77c0-1.06,0.54-2.53,1.63-4.42
		c-1.44,0.12-3.09,0.33-4.96,0.64c-0.54,0.71-1.03,1.39-1.46,2.02c-0.44,0.64-0.8,1.18-1.07,1.61c-0.28,0.44-0.48,0.73-0.62,0.88
		c-0.13,0.15-0.28,0.22-0.43,0.22c-0.26,0-0.49-0.11-0.67-0.34c-0.08-0.09-0.13-0.18-0.16-0.27c-0.02-0.09-0.03-0.19-0.03-0.3
		s0-0.21,0-0.29c0-0.11,0.06-0.27,0.18-0.48c0.12-0.21,0.4-0.63,0.85-1.25c0.45-0.62,0.77-1.1,0.98-1.42
		c-0.24,0.03-0.54,0.04-0.92,0.04c-0.47,0-0.86-0.09-1.16-0.26c-0.3-0.17-0.44-0.39-0.44-0.64c0-0.29,0.08-0.6,0.23-0.94
		c0.15-0.33,0.36-0.61,0.6-0.83s0.49-0.34,0.74-0.34c0.16,0,0.36,0.05,0.59,0.15l3.53-0.88c1.97-2.13,3.44-3.82,4.4-5.06
		c0.97-1.24,1.45-2.04,1.45-2.39c0-0.2-0.05-0.37-0.16-0.5c-0.11-0.13-0.26-0.23-0.46-0.31c-0.2-0.07-0.42-0.11-0.68-0.11
		c-0.3,0-0.78,0.08-1.43,0.25c-0.65,0.16-1.43,0.41-2.33,0.72c-0.9,0.32-2.03,0.76-3.38,1.33c-1,0.41-1.5,0.67-1.5,0.78
		c0,0.13,0.07,0.21,0.21,0.25c0.14,0.04,0.31,0.06,0.53,0.08c0.21,0.02,0.32,0.05,0.32,0.1c0,0.04-0.05,0.09-0.16,0.15
		C23.2,21.92,23.06,21.99,22.87,22.08z"/>
	<path d="M50.01,28.46c-1.09,0.04-1.9,0.05-2.41,0.05c-0.78,0-1.87-0.02-3.25-0.05c-0.29,0.32-0.65,0.7-1.07,1.13
		c-0.42,0.43-0.82,0.83-1.19,1.2c-0.37,0.37-0.7,0.68-0.96,0.94c-0.27,0.26-0.49,0.48-0.66,0.65c-1.01,0.98-1.67,1.63-1.98,1.93
		c-0.31,0.3-0.63,0.57-0.96,0.81c-0.34,0.24-0.65,0.36-0.93,0.36c-0.32,0-0.48-0.15-0.48-0.44c0-0.32,0.23-0.81,0.68-1.48
		c0.46-0.67,0.97-1.25,1.54-1.76c0.57-0.51,1.04-0.77,1.41-0.77c0.1,0,0.24,0.05,0.42,0.14l2.6-2.78c-0.33-0.05-0.76-0.08-1.29-0.09
		c-0.53-0.01-0.88-0.05-1.07-0.12c-0.18-0.06-0.27-0.22-0.27-0.46c0-0.39,0.42-1.01,1.26-1.85c0.46-0.46,0.88-0.76,1.29-0.89
		c0.4-0.13,1.17-0.2,2.3-0.21c-0.67,0.09-1.14,0.2-1.42,0.32c-0.28,0.12-0.43,0.31-0.46,0.55c0.26,0,0.51,0,0.73,0
		c0.22,0,0.51,0,0.88-0.01c0.36,0,0.63-0.01,0.8-0.02c1.49-1.46,2.85-2.73,4.07-3.81c1.22-1.08,2.51-2.11,3.86-3.08
		s2.8-1.86,4.33-2.67c0.3,0.39,0.45,0.8,0.45,1.23c0,0.36-0.12,0.77-0.35,1.23s-0.72,1.34-1.48,2.62c-0.75,1.28-1.52,2.64-2.29,4.08
		c0.25,0,0.47,0,0.64,0.01c0.17,0,0.35,0.01,0.54,0.02c0.52,0,0.84,0.01,0.95,0.03c0.11,0.02,0.17,0.11,0.17,0.27
		c0,0.07-0.07,0.2-0.21,0.39c-0.14,0.19-0.39,0.5-0.75,0.93c-0.36,0.43-0.7,0.87-1.04,1.32l-2.01,0.16c-1.07,2-1.6,3.14-1.6,3.39
		c0,0.37,0.2,0.56,0.59,0.56c0.19,0,0.98-0.4,2.38-1.2l-0.11,0.72c-0.75,0.57-1.33,1.01-1.74,1.33c-0.42,0.32-0.77,0.59-1.08,0.81
		c-0.31,0.21-0.58,0.37-0.83,0.48c-0.25,0.1-0.5,0.16-0.76,0.16c-0.3,0-0.6-0.14-0.89-0.42c-0.29-0.28-0.44-0.67-0.44-1.18
		c0-0.21,0.08-0.51,0.23-0.9c0.15-0.39,0.32-0.76,0.5-1.11S49.29,29.8,50.01,28.46z M47.43,25.35l4.43-0.08
		c0.52-0.88,0.94-1.6,1.26-2.15c0.32-0.55,0.68-1.14,1.07-1.78c0.39-0.64,0.72-1.19,1-1.63c0.28-0.45,0.59-0.95,0.92-1.52
		c-0.66,0.41-1.33,0.87-2.01,1.37c-0.68,0.5-1.45,1.11-2.31,1.81c-0.86,0.71-1.62,1.36-2.28,1.97
		C48.84,23.94,48.15,24.61,47.43,25.35z"/>
	<path d="M58.6,28.8c1.63-2.67,2.85-4.77,3.66-6.31c0.81-1.54,1.21-2.51,1.21-2.93c0-0.15-0.05-0.28-0.16-0.38
		c-0.11-0.1-0.24-0.15-0.38-0.15c-0.28,0-1.08,0.27-2.39,0.82c-1.08,0.46-1.88,0.82-2.38,1.09c-0.5,0.27-1.19,0.65-2.07,1.16
		c-0.88,0.5-1.38,0.75-1.51,0.75c-0.25,0-0.38-0.18-0.38-0.53c0-0.67,0.44-1.58,1.33-2.72c0.88-1.14,2.07-2.14,3.57-2.99
		c0.18-0.12,0.27-0.11,0.27,0.03c0,0.05-0.11,0.15-0.33,0.31s-0.41,0.33-0.58,0.5c-0.17,0.17-0.36,0.42-0.57,0.76
		c1.91-0.96,3.32-1.63,4.22-2.02c0.9-0.39,1.67-0.59,2.3-0.59c0.56,0,0.99,0.12,1.31,0.35c0.32,0.23,0.48,0.57,0.48,1
		c0,0.38-0.15,0.94-0.46,1.67c-0.31,0.73-0.75,1.62-1.33,2.66c-0.58,1.04-1.18,2.08-1.78,3.1c-0.61,1.02-1.7,2.87-3.29,5.54
		c1.77-2.21,3.4-4.15,4.88-5.81c1.49-1.66,2.78-3.01,3.88-4.05c1.1-1.04,2.03-1.82,2.79-2.34c0.76-0.52,1.31-0.79,1.67-0.79
		c0.13,0,0.28,0.12,0.45,0.36c0.17,0.24,0.33,0.54,0.46,0.88c0.14,0.35,0.21,0.63,0.21,0.85c0,0.6-0.15,1.2-0.46,1.79
		c-0.31,0.59-0.76,1.3-1.36,2.13c-1.71,2.32-2.96,4.14-3.75,5.47c-0.79,1.33-1.18,2.4-1.18,3.21c0,0.61,0.32,0.92,0.96,0.92
		c0.29,0,0.63-0.11,1.03-0.33c0.39-0.22,0.86-0.56,1.41-1.01s1.1-0.95,1.65-1.49l0.03,1.07c-0.78,0.8-1.49,1.49-2.11,2.06
		c-0.62,0.57-1.21,1.07-1.76,1.5c-0.55,0.43-1.05,0.75-1.48,0.97s-0.82,0.33-1.15,0.33c-0.47,0-0.85-0.16-1.14-0.49
		c-0.29-0.32-0.43-0.75-0.43-1.28c0-0.49,0.11-1.09,0.32-1.78c0.21-0.7,0.54-1.5,0.98-2.41c0.44-0.91,0.99-1.9,1.64-2.97
		c0.65-1.07,1.39-2.18,2.21-3.34c0.8-1.15,1.2-1.89,1.2-2.21c0-0.19-0.1-0.29-0.3-0.29c-0.81,0-2.66,1.62-5.55,4.85
		c-0.18,0.2-0.5,0.57-0.95,1.11c-0.45,0.54-0.91,1.12-1.38,1.73c-0.47,0.61-1,1.3-1.58,2.06c-0.58,0.76-1.18,1.53-1.78,2.32
		c-0.28,0.37-0.52,0.56-0.72,0.56c-0.22,0-0.51-0.18-0.86-0.53s-0.53-0.62-0.53-0.78c0-0.19,0.25-0.67,0.76-1.44
		S58.29,29.32,58.6,28.8z"/>
	<path d="M82.65,22.08l-2.94,1.54c-0.46,0.23-0.76,0.34-0.92,0.34c-0.28,0-0.49-0.09-0.62-0.27c-0.13-0.18-0.2-0.45-0.2-0.83
		c0-0.43,0.09-0.92,0.27-1.48c0.18-0.56,0.39-0.97,0.63-1.24c0.25-0.27,0.82-0.65,1.73-1.13c0.91-0.48,2-0.96,3.27-1.44
		c1.28-0.48,2.61-0.88,3.99-1.2c1.39-0.32,2.65-0.48,3.8-0.48c0.8,0,1.39,0.13,1.78,0.38c0.38,0.26,0.57,0.93,0.57,2.02
		c0,0.59-0.2,1.25-0.61,1.98c-0.41,0.72-0.89,1.43-1.46,2.11c-0.57,0.68-1.62,1.9-3.17,3.64c0.82-0.13,1.42-0.21,1.8-0.25
		c0.38-0.04,1.1-0.11,2.15-0.23c1.21-1.75,2.19-3.15,2.94-4.19c0.75-1.04,1.38-1.91,1.9-2.6c0.52-0.69,0.83-1.08,0.93-1.18
		c0.18-0.21,0.33-0.29,0.46-0.24c0.12,0.05,0.18,0.24,0.18,0.57c0,0.37-0.04,0.68-0.12,0.92c-0.08,0.24-0.2,0.47-0.36,0.7
		s-0.25,0.36-0.26,0.38c-0.24,0.39-0.58,0.9-1.03,1.54c-0.45,0.63-0.88,1.26-1.31,1.88c-0.43,0.62-0.92,1.35-1.46,2.2
		c1.02,0.04,2.03,0.17,3.02,0.4l-2.46,3.34c-0.67-0.09-1.57-0.14-2.69-0.14c-0.27,0.55-0.49,0.98-0.64,1.29s-0.28,0.6-0.38,0.88
		c-0.1,0.28-0.16,0.54-0.16,0.77c0,0.15,0.04,0.34,0.13,0.58c0.09,0.24,0.13,0.38,0.13,0.42c0,0.18-0.13,0.38-0.4,0.58
		c-0.27,0.21-0.58,0.38-0.94,0.54c-0.36,0.15-0.64,0.23-0.84,0.23c-0.34,0-0.51-0.26-0.51-0.77c0-1.06,0.54-2.53,1.63-4.42
		c-1.44,0.12-3.09,0.33-4.96,0.64c-0.54,0.71-1.03,1.39-1.46,2.02c-0.44,0.64-0.8,1.18-1.07,1.61c-0.28,0.44-0.48,0.73-0.62,0.88
		c-0.13,0.15-0.28,0.22-0.43,0.22c-0.26,0-0.49-0.11-0.67-0.34c-0.08-0.09-0.13-0.18-0.16-0.27c-0.02-0.09-0.03-0.19-0.03-0.3
		s0-0.21,0-0.29c0-0.11,0.06-0.27,0.18-0.48c0.12-0.21,0.4-0.63,0.85-1.25c0.45-0.62,0.77-1.1,0.98-1.42
		c-0.24,0.03-0.54,0.04-0.92,0.04c-0.47,0-0.86-0.09-1.16-0.26c-0.3-0.17-0.44-0.39-0.44-0.64c0-0.29,0.08-0.6,0.23-0.94
		c0.15-0.33,0.36-0.61,0.6-0.83s0.49-0.34,0.74-0.34c0.16,0,0.36,0.05,0.59,0.15l3.53-0.88c1.97-2.13,3.44-3.82,4.4-5.06
		c0.97-1.24,1.45-2.04,1.45-2.39c0-0.2-0.05-0.37-0.16-0.5c-0.11-0.13-0.26-0.23-0.46-0.31c-0.2-0.07-0.42-0.11-0.68-0.11
		c-0.3,0-0.78,0.08-1.43,0.25c-0.65,0.16-1.43,0.41-2.33,0.72c-0.9,0.32-2.03,0.76-3.38,1.33c-1,0.41-1.5,0.67-1.5,0.78
		c0,0.13,0.07,0.21,0.21,0.25c0.14,0.04,0.31,0.06,0.53,0.08c0.21,0.02,0.32,0.05,0.32,0.1c0,0.04-0.05,0.09-0.16,0.15
		C82.97,21.92,82.83,21.99,82.65,22.08z"/>
	<path d="M114.38,23.31c-0.89,1.31-1.65,2.5-2.26,3.57c-0.61,1.07-1.07,1.98-1.37,2.73s-0.46,1.31-0.46,1.67
		c0,0.67,0.3,1.01,0.89,1.01c0.63,0,2.05-0.86,4.27-2.57l-0.03,0.94c-2.56,2.62-4.44,3.92-5.63,3.92c-1.42,0-2.13-0.74-2.13-2.21
		c0-0.88,0.43-2.14,1.3-3.76c0.87-1.62,2.19-3.72,3.96-6.29c-2.09,2.28-3.83,4.15-5.23,5.62s-2.85,2.89-4.34,4.27
		c-0.36,0.34-0.68,0.64-0.97,0.92s-0.58,0.5-0.88,0.66s-0.61,0.24-0.96,0.24c-0.54,0-0.98-0.21-1.34-0.63s-0.53-1.01-0.53-1.78
		c0-0.49,0.15-1.06,0.44-1.72c0.29-0.65,0.73-1.41,1.33-2.28s1.32-1.81,2.19-2.84c1.4-1.69,2.37-2.88,2.91-3.57
		c0.54-0.69,0.81-1.13,0.81-1.33c0-0.14-0.07-0.21-0.22-0.21c-0.17,0-0.46,0.08-0.87,0.24c-0.41,0.16-0.94,0.42-1.61,0.78
		c-0.67,0.36-1.52,0.87-2.57,1.54c-0.78,0.49-1.56,0.89-2.32,1.2c-0.76,0.31-1.3,0.46-1.61,0.46c-0.18,0-0.33-0.05-0.46-0.15
		c-0.12-0.1-0.18-0.23-0.18-0.38c0-0.22,0.1-0.58,0.29-1.07c0.19-0.5,0.44-1.01,0.75-1.54s0.58-0.93,0.81-1.2
		c0.66-0.73,1.55-1.37,2.69-1.93c1.14-0.56,2.31-0.98,3.51-1.29s2.2-0.45,2.98-0.45c0.58,0,1.01,0.1,1.28,0.29
		c0.27,0.2,0.4,0.52,0.4,0.96c0,0.98-0.12,1.73-0.37,2.26s-0.66,1.22-1.23,2.07c-0.21,0.33-0.52,0.78-0.94,1.35
		c-0.42,0.57-0.83,1.13-1.26,1.67c-0.42,0.54-0.77,1-1.05,1.36c-0.27,0.36-0.56,0.77-0.85,1.2c-0.79,1.17-1.29,1.92-1.5,2.26
		s-0.31,0.63-0.31,0.88c0,0.32,0.15,0.48,0.45,0.48c0.27,0,0.54-0.1,0.79-0.29s0.8-0.66,1.64-1.39c0.97-0.83,1.91-1.7,2.82-2.61
		c0.91-0.91,1.74-1.78,2.49-2.6c0.75-0.82,1.7-1.89,2.84-3.21c1.29-1.49,2.11-2.43,2.46-2.8c0.36-0.37,0.65-0.56,0.88-0.56
		c0.2,0,0.38,0.16,0.54,0.49c0.16,0.32,0.24,0.78,0.24,1.36c0,0.31-0.16,0.72-0.47,1.24C116.08,20.8,115.41,21.81,114.38,23.31z"/>
	<path d="M118.1,28.8c1.63-2.67,2.85-4.77,3.66-6.31c0.81-1.54,1.21-2.51,1.21-2.93c0-0.15-0.05-0.28-0.16-0.38
		c-0.11-0.1-0.24-0.15-0.38-0.15c-0.28,0-1.08,0.27-2.39,0.82c-1.08,0.46-1.88,0.82-2.38,1.09c-0.5,0.27-1.19,0.65-2.07,1.16
		c-0.88,0.5-1.38,0.75-1.51,0.75c-0.25,0-0.38-0.18-0.38-0.53c0-0.67,0.44-1.58,1.33-2.72c0.88-1.14,2.07-2.14,3.57-2.99
		c0.18-0.12,0.27-0.11,0.27,0.03c0,0.05-0.11,0.15-0.33,0.31s-0.41,0.33-0.58,0.5c-0.17,0.17-0.36,0.42-0.57,0.76
		c1.91-0.96,3.32-1.63,4.22-2.02c0.9-0.39,1.67-0.59,2.3-0.59c0.56,0,0.99,0.12,1.31,0.35s0.48,0.57,0.48,1
		c0,0.38-0.15,0.94-0.46,1.67c-0.31,0.73-0.75,1.62-1.33,2.66c-0.58,1.04-1.18,2.08-1.78,3.1c-0.61,1.02-1.7,2.87-3.29,5.54
		c1.77-2.21,3.4-4.15,4.88-5.81c1.49-1.66,2.78-3.01,3.88-4.05s2.03-1.82,2.79-2.34c0.76-0.52,1.31-0.79,1.67-0.79
		c0.13,0,0.28,0.12,0.45,0.36c0.17,0.24,0.33,0.54,0.46,0.88c0.14,0.35,0.21,0.63,0.21,0.85c0,0.6-0.15,1.2-0.46,1.79
		c-0.31,0.59-0.76,1.3-1.36,2.13c-1.71,2.32-2.96,4.14-3.75,5.47s-1.18,2.4-1.18,3.21c0,0.61,0.32,0.92,0.96,0.92
		c0.29,0,0.63-0.11,1.03-0.33c0.39-0.22,0.86-0.56,1.41-1.01s1.1-0.95,1.65-1.49l0.03,1.07c-0.78,0.8-1.49,1.49-2.11,2.06
		s-1.21,1.07-1.76,1.5c-0.55,0.43-1.05,0.75-1.48,0.97s-0.82,0.33-1.15,0.33c-0.47,0-0.85-0.16-1.14-0.49
		c-0.29-0.32-0.43-0.75-0.43-1.28c0-0.49,0.11-1.09,0.32-1.78c0.21-0.7,0.54-1.5,0.98-2.41s0.99-1.9,1.64-2.97
		c0.65-1.07,1.39-2.18,2.21-3.34c0.8-1.15,1.2-1.89,1.2-2.21c0-0.19-0.1-0.29-0.3-0.29c-0.81,0-2.66,1.62-5.55,4.85
		c-0.18,0.2-0.5,0.57-0.95,1.11c-0.45,0.54-0.91,1.12-1.38,1.73s-1,1.3-1.58,2.06s-1.18,1.53-1.78,2.32
		c-0.28,0.37-0.52,0.56-0.72,0.56c-0.22,0-0.51-0.18-0.86-0.53s-0.53-0.62-0.53-0.78c0-0.19,0.25-0.67,0.76-1.44
		S117.79,29.32,118.1,28.8z"/>
	<path d="M147.21,29.73v0.72c-1.04,0.88-2.07,1.71-3.09,2.51s-2.26,1.69-3.72,2.67c-0.75,1.02-1.39,1.86-1.93,2.51
		c-0.54,0.65-1,1.19-1.39,1.62c-0.39,0.43-0.59,0.65-0.6,0.66c-0.13,0.15-0.34,0.31-0.64,0.46c-0.3,0.15-0.55,0.23-0.75,0.23
		c-0.28,0-0.52-0.1-0.7-0.31s-0.28-0.45-0.28-0.73c0-0.73,0.38-1.51,1.15-2.33c0.77-0.83,1.89-1.67,3.36-2.54
		c0.73-1.05,1.43-2.1,2.09-3.17c0.67-1.06,1.25-2.03,1.74-2.91s0.96-1.74,1.37-2.58c-0.66,0.55-1.31,1.07-1.96,1.58
		s-1.28,0.99-1.9,1.45s-1,0.75-1.15,0.85s-0.27,0.21-0.38,0.29c-1.59,1.39-2.77,2.08-3.55,2.08c-0.75,0-1.38-0.36-1.89-1.07
		c-0.51-0.71-0.77-1.61-0.77-2.69c0-0.68,0.11-1.4,0.33-2.14c0.22-0.74,0.55-1.51,1-2.29c0.45-0.78,0.99-1.54,1.62-2.27
		c0.63-0.73,1.32-1.4,2.08-2.01c1.17-0.93,2.47-1.76,3.92-2.5c1.45-0.73,2.8-1.29,4.05-1.68c1.25-0.39,2.17-0.58,2.76-0.58
		c0.35,0,0.62,0.08,0.83,0.25c0.21,0.17,0.35,0.4,0.44,0.68s0.13,0.59,0.13,0.91c0,0.29-0.09,0.58-0.27,0.88
		c-0.26,0.39-0.73,0.8-1.39,1.24c-0.67,0.43-1.33,0.82-2.01,1.15c-0.67,0.33-1.06,0.5-1.16,0.5c-0.05,0-0.08-0.02-0.08-0.05
		c0-0.08,0.1-0.21,0.31-0.4c0.21-0.18,0.44-0.37,0.7-0.56c0.57-0.43,0.9-0.88,1-1.37c-0.88,0.25-1.76,0.57-2.64,0.97
		c-0.88,0.4-1.74,0.88-2.6,1.44c-0.86,0.56-1.71,1.19-2.57,1.9c-0.97,0.81-1.79,1.66-2.47,2.54c-0.68,0.88-1.19,1.69-1.54,2.44
		c-0.35,0.75-0.53,1.32-0.53,1.72c0,0.3,0.1,0.56,0.29,0.79s0.45,0.33,0.78,0.33c0.38,0,0.86-0.17,1.42-0.51
		c0.61-0.36,1.28-0.83,2.02-1.4s1.41-1.11,2.03-1.62c0.62-0.51,1.29-1.07,2.01-1.68c0.67-0.56,1.18-1,1.55-1.35s0.64-0.64,0.83-0.9
		c0.38-0.53,0.76-0.83,1.14-0.92s0.7-0.01,0.97,0.23s0.4,0.52,0.4,0.85c0,0.11-0.2,0.54-0.59,1.28c-0.4,0.74-1,1.82-1.82,3.23
		c-0.82,1.41-1.82,3.07-3.01,4.98C143.19,32.57,144.88,31.43,147.21,29.73z"/>
	<path d="M169.15,30.14c-0.23-0.42-0.57-0.8-1.03-1.13s-0.97-0.61-1.54-0.81s-1.16-0.36-1.78-0.46c-1.84-0.27-3.56-0.87-5.15-1.79
		c-0.14-0.07-0.28-0.23-0.44-0.46c-0.16-0.24-0.23-0.46-0.23-0.68c0-0.8,0.13-1.61,0.4-2.41s0.61-1.44,1.03-1.89
		c0.67-0.76,1.89-1.42,3.64-1.98c1.75-0.56,3.73-0.85,5.93-0.85c1.31,0,2.33,0.1,3.04,0.3c0.72,0.2,1.07,0.51,1.07,0.93
		c0,0.68-0.09,1.21-0.28,1.59c-0.19,0.37-0.39,0.62-0.6,0.75s-0.59,0.29-1.13,0.5c-0.57,0.2-1.07,0.41-1.5,0.63
		s-0.79,0.43-1.09,0.63c-0.3,0.2-0.49,0.3-0.56,0.3c-0.09,0-0.14-0.04-0.14-0.11c0-0.15,0.16-0.39,0.49-0.7s0.72-0.59,1.2-0.83
		c0.5-0.26,0.75-0.43,0.75-0.51c0-0.12-0.28-0.18-0.83-0.18c-1.69,0-3.25,0.15-4.68,0.45s-2.56,0.7-3.38,1.19s-1.24,0.99-1.24,1.5
		c0,0.32,0.17,0.54,0.51,0.68c0.34,0.13,1.1,0.35,2.26,0.66c1.17,0.31,2.21,0.67,3.13,1.07c1.32,0.57,2.3,1.15,2.94,1.76
		s0.96,1.29,0.96,2.05c0,0.52-0.12,1.04-0.38,1.57c-0.25,0.52-0.62,1-1.1,1.44s-1.04,0.8-1.67,1.08c-0.54,0.23-1.21,0.44-2.03,0.64
		c-0.82,0.2-1.7,0.36-2.65,0.47c-0.95,0.11-1.86,0.17-2.73,0.17c-1.59,0-2.88-0.15-3.85-0.45s-1.46-0.76-1.46-1.37
		c0-0.27,0.16-0.7,0.49-1.28s0.72-0.97,1.16-1.17c0.39-0.16,0.77-0.24,1.13-0.27s0.55,0.02,0.55,0.13c0,0.03-0.01,0.05-0.04,0.08
		s-0.06,0.05-0.1,0.07s-0.07,0.04-0.11,0.05c-0.18,0.07-0.33,0.13-0.44,0.17s-0.21,0.08-0.27,0.12s-0.1,0.1-0.1,0.17
		c0,0.19,0.94,0.29,2.83,0.29c1.64,0,2.99-0.06,4.03-0.18c1.05-0.12,1.97-0.33,2.78-0.64S168.49,30.68,169.15,30.14z"/>
	<path d="M185.05,28.46c-1.09,0.04-1.9,0.05-2.41,0.05c-0.78,0-1.87-0.02-3.25-0.05c-0.29,0.32-0.65,0.7-1.07,1.13
		s-0.82,0.83-1.19,1.2s-0.7,0.68-0.96,0.94s-0.49,0.48-0.66,0.65c-1.01,0.98-1.67,1.63-1.98,1.93s-0.63,0.57-0.96,0.81
		c-0.34,0.24-0.65,0.36-0.93,0.36c-0.32,0-0.48-0.15-0.48-0.44c0-0.32,0.23-0.81,0.68-1.48s0.97-1.25,1.54-1.76
		c0.57-0.51,1.04-0.77,1.41-0.77c0.1,0,0.24,0.05,0.42,0.14l2.6-2.78c-0.33-0.05-0.76-0.08-1.29-0.09s-0.88-0.05-1.07-0.12
		s-0.27-0.22-0.27-0.46c0-0.39,0.42-1.01,1.26-1.85c0.46-0.46,0.88-0.76,1.29-0.89c0.4-0.13,1.17-0.2,2.3-0.21
		c-0.67,0.09-1.14,0.2-1.42,0.32s-0.43,0.31-0.46,0.55c0.26,0,0.51,0,0.73,0s0.51,0,0.88-0.01c0.36,0,0.63-0.01,0.8-0.02
		c1.5-1.46,2.85-2.73,4.07-3.81s2.51-2.11,3.86-3.08s2.8-1.86,4.33-2.67c0.3,0.39,0.45,0.8,0.45,1.23c0,0.36-0.12,0.77-0.35,1.23
		s-0.72,1.34-1.48,2.62c-0.75,1.28-1.52,2.64-2.29,4.08c0.25,0,0.47,0,0.64,0.01c0.17,0,0.35,0.01,0.54,0.02
		c0.52,0,0.84,0.01,0.95,0.03c0.11,0.02,0.17,0.11,0.17,0.27c0,0.07-0.07,0.2-0.21,0.39c-0.14,0.19-0.39,0.5-0.75,0.93
		c-0.36,0.43-0.7,0.87-1.04,1.32l-2.01,0.16c-1.07,2-1.6,3.14-1.6,3.39c0,0.37,0.2,0.56,0.59,0.56c0.19,0,0.98-0.4,2.38-1.2
		l-0.11,0.72c-0.75,0.57-1.33,1.01-1.74,1.33s-0.77,0.59-1.08,0.81s-0.58,0.37-0.83,0.48c-0.25,0.1-0.5,0.16-0.76,0.16
		c-0.3,0-0.6-0.14-0.89-0.42c-0.29-0.28-0.44-0.67-0.44-1.18c0-0.21,0.08-0.51,0.23-0.9c0.16-0.39,0.32-0.76,0.5-1.11
		S184.33,29.8,185.05,28.46z M182.47,25.35l4.43-0.08c0.52-0.88,0.94-1.6,1.26-2.15s0.68-1.14,1.07-1.78s0.72-1.19,1-1.63
		c0.28-0.45,0.59-0.95,0.92-1.52c-0.66,0.41-1.33,0.87-2.01,1.37c-0.68,0.5-1.45,1.11-2.31,1.81c-0.86,0.71-1.62,1.36-2.28,1.97
		C183.88,23.94,183.18,24.61,182.47,25.35z"/>
	<path d="M193.64,28.8c1.63-2.67,2.85-4.77,3.66-6.31c0.81-1.54,1.21-2.51,1.21-2.93c0-0.15-0.05-0.28-0.16-0.38
		c-0.11-0.1-0.24-0.15-0.38-0.15c-0.28,0-1.08,0.27-2.39,0.82c-1.08,0.46-1.88,0.82-2.38,1.09c-0.5,0.27-1.19,0.65-2.07,1.16
		c-0.88,0.5-1.38,0.75-1.51,0.75c-0.25,0-0.38-0.18-0.38-0.53c0-0.67,0.44-1.58,1.33-2.72c0.88-1.14,2.07-2.14,3.57-2.99
		c0.18-0.12,0.27-0.11,0.27,0.03c0,0.05-0.11,0.15-0.33,0.31s-0.41,0.33-0.58,0.5c-0.17,0.17-0.36,0.42-0.57,0.76
		c1.91-0.96,3.32-1.63,4.22-2.02c0.9-0.39,1.67-0.59,2.3-0.59c0.56,0,0.99,0.12,1.31,0.35s0.48,0.57,0.48,1
		c0,0.38-0.15,0.94-0.46,1.67c-0.31,0.73-0.75,1.62-1.33,2.66c-0.58,1.04-1.18,2.08-1.78,3.1c-0.61,1.02-1.7,2.87-3.29,5.54
		c1.77-2.21,3.4-4.15,4.88-5.81c1.49-1.66,2.78-3.01,3.88-4.05s2.03-1.82,2.79-2.34c0.76-0.52,1.31-0.79,1.67-0.79
		c0.13,0,0.28,0.12,0.45,0.36c0.17,0.24,0.33,0.54,0.46,0.88c0.14,0.35,0.21,0.63,0.21,0.85c0,0.6-0.15,1.2-0.46,1.79
		c-0.31,0.59-0.76,1.3-1.36,2.13c-1.71,2.32-2.96,4.14-3.75,5.47s-1.18,2.4-1.18,3.21c0,0.61,0.32,0.92,0.96,0.92
		c0.29,0,0.63-0.11,1.03-0.33c0.39-0.22,0.86-0.56,1.41-1.01s1.1-0.95,1.65-1.49l0.03,1.07c-0.78,0.8-1.49,1.49-2.11,2.06
		s-1.21,1.07-1.76,1.5c-0.55,0.43-1.05,0.75-1.48,0.97s-0.82,0.33-1.15,0.33c-0.47,0-0.85-0.16-1.14-0.49
		c-0.29-0.32-0.43-0.75-0.43-1.28c0-0.49,0.11-1.09,0.32-1.78c0.21-0.7,0.54-1.5,0.98-2.41s0.99-1.9,1.64-2.97
		c0.65-1.07,1.39-2.18,2.21-3.34c0.8-1.15,1.2-1.89,1.2-2.21c0-0.19-0.1-0.29-0.3-0.29c-0.81,0-2.66,1.62-5.55,4.85
		c-0.18,0.2-0.5,0.57-0.95,1.11c-0.45,0.54-0.91,1.12-1.38,1.73s-1,1.3-1.58,2.06s-1.18,1.53-1.78,2.32
		c-0.28,0.37-0.52,0.56-0.72,0.56c-0.22,0-0.51-0.18-0.86-0.53s-0.53-0.62-0.53-0.78c0-0.19,0.25-0.67,0.76-1.44
		S193.33,29.32,193.64,28.8z"/>
</g>
</svg>
