<?xml version="1.0" encoding="utf-8"?>
<!-- Generator: Adobe Illustrator 28.1.0, SVG Export Plug-In . SVG Version: 6.00 Build 0)  -->
<svg version="1.1" id="レイヤー_1" xmlns="http://www.w3.org/2000/svg" xmlns:xlink="http://www.w3.org/1999/xlink" x="0px"
	 y="0px" viewBox="0 0 92.08 32.2" style="enable-background:new 0 0 92.08 32.2;" xml:space="preserve">
<g>
	<path d="M22.64,29.2c0.96,0,2.09-0.81,3.4-2.44c1.31-1.63,2.36-3.61,3.16-5.94s1.2-4.83,1.2-7.5S29.89,8.21,28.88,6
		c0.13-0.13,0.32-0.3,0.56-0.5c0.24-0.2,0.79-0.47,1.66-0.8c0.87-0.33,1.79-0.5,2.78-0.5c0,3.84-0.37,7.75-1.1,11.74
		c-0.73,3.99-1.74,7.07-3.02,9.26c-2.64,4.53-5.72,6.8-9.24,6.8c-0.99,0-1.81-0.13-2.46-0.4c-0.65-0.27-1.06-0.53-1.22-0.8l-0.2-0.4
		l0.48-5.72l-0.4-0.24c-0.56,1.41-0.95,2.31-1.18,2.7c-0.23,0.39-0.52,0.9-0.88,1.54c-0.36,0.64-0.69,1.09-1,1.36
		c-0.31,0.27-0.69,0.59-1.14,0.96c-0.85,0.67-1.89,1-3.12,1c-1.23,0-2.22-0.13-2.98-0.4c-0.76-0.27-1.27-0.53-1.54-0.8l-0.4-0.4
		C5.2,21.49,5.6,13.76,5.68,7.2H2.6c0-0.61,0.13-1.19,0.4-1.72C4.79,5.27,6.4,4.84,7.84,4.2c0.37,0,0.71,0.17,1,0.5
		C9.13,5.03,9.28,5.47,9.28,6c-0.8,10.85-1.2,18.59-1.2,23.2h2.72c0.72,0,1.49-0.52,2.32-1.56c1.47-1.87,2.76-4.37,3.88-7.52
		c0.35-5.39,0.64-9.31,0.88-11.76c1.23-0.4,2.44-0.6,3.64-0.6c-0.43,2.05-0.65,3.49-0.68,4.32c-0.32,3.39-0.61,8.16-0.88,14.32
		l-0.12,2.8H22.64z"/>
	<path d="M52.66,25.36c-0.76,1.81-1.95,3.37-3.56,4.68C47.49,31.35,45.57,32,43.36,32c-4.56,0-6.84-2.48-6.84-7.44
		c0-1.87,0.38-3.71,1.14-5.52c0.76-1.81,1.95-3.37,3.56-4.68c1.61-1.31,3.53-1.96,5.74-1.96c4.56,0,6.84,2.48,6.84,7.44
		C53.8,21.71,53.42,23.55,52.66,25.36z M42.4,29.12l0.32,0.08h3.84c1.12-0.43,2.11-1.45,2.96-3.08c0.85-1.63,1.28-3.29,1.28-5
		c0-2.11-0.37-3.6-1.12-4.48c-0.67-0.77-1.25-1.23-1.76-1.36L47.6,15.2h-3.84c-1.12,0.43-2.11,1.45-2.96,3.08s-1.28,3.39-1.28,5.3
		c0,1.91,0.35,3.27,1.06,4.1C41.29,28.51,41.89,28.99,42.4,29.12z"/>
	<path d="M56.36,15.2c0-0.61,0.13-1.19,0.4-1.72c1.52-0.21,3-0.64,4.44-1.28c0.37,0,0.71,0.17,1,0.5c0.29,0.33,0.44,0.77,0.44,1.3
		l-0.68,4.8l0.4,0.24c0.67-1.52,1.7-3.01,3.1-4.46c1.4-1.45,2.75-2.18,4.06-2.18c0.51,0,0.97,0.11,1.38,0.32
		c0.41,0.21,0.7,0.43,0.86,0.64L72,13.68c-0.67,1.17-1.17,2.48-1.52,3.92l-0.2,0.68c-0.53,0.24-1.19,0.36-1.96,0.36
		c0.24-1.09,0.36-1.79,0.36-2.08c0-0.75-0.25-1.2-0.76-1.36c-0.59,0-1.51,0.75-2.76,2.26c-1.25,1.51-2.28,3.13-3.08,4.86
		c-0.35,4-0.68,7.09-1,9.28c-1.31,0.4-2.56,0.6-3.76,0.6c0.43-1.79,0.8-3.88,1.12-6.28c0.32-2.4,0.6-5.97,0.84-10.72H56.36z"/>
	<path d="M73.8,3c0-0.61,0.13-1.19,0.4-1.72c1.52-0.21,3-0.64,4.44-1.28c0.37,0,0.71,0.17,1,0.5c0.29,0.33,0.44,0.77,0.44,1.3
		l-2,17.92l0.4,0.24c0.83-1.89,2.05-3.63,3.68-5.2c1.63-1.57,3.47-2.36,5.52-2.36c0.99,0,1.77,0.13,2.36,0.4
		c0.59,0.27,0.92,0.53,1,0.8L91.2,14c-0.21,2.4-1.06,4.47-2.54,6.2c-1.48,1.73-2.87,2.87-4.18,3.4l3.68,5.6h3.92
		c0,0.61-0.13,1.19-0.4,1.72c-1.79,0.21-3.4,0.64-4.84,1.28c-0.64,0-1.13-0.32-1.48-0.96L81.12,24v-0.4
		c2.05-0.91,3.66-2.03,4.82-3.36s1.85-3.01,2.06-5.04h-2.44c-1.07,0-2.33,0.83-3.8,2.5c-1.47,1.67-2.65,3.5-3.56,5.5
		c-0.27,3.31-0.57,6.11-0.92,8.4c-1.31,0.4-2.56,0.6-3.76,0.6c0.43-1.79,0.69-3.09,0.8-3.92c0.53-3.92,1.33-12.35,2.4-25.28H73.8z"
		/>
</g>
</svg>
