<?xml version="1.0" encoding="utf-8"?>
<!-- Generator: Adobe Illustrator 28.1.0, SVG Export Plug-In . SVG Version: 6.00 Build 0)  -->
<svg version="1.1" id="レイヤー_1" xmlns="http://www.w3.org/2000/svg" xmlns:xlink="http://www.w3.org/1999/xlink" x="0px"
	 y="0px" viewBox="0 0 47.28 16.1" style="enable-background:new 0 0 47.28 16.1;" xml:space="preserve">
<g>
	<path d="M11.42,14.6c0.48,0,1.05-0.41,1.7-1.22s1.18-1.8,1.58-2.97s0.6-2.42,0.6-3.75c0-1.33-0.25-2.55-0.76-3.66
		c0.07-0.07,0.16-0.15,0.28-0.25c0.12-0.1,0.4-0.23,0.83-0.4c0.43-0.17,0.9-0.25,1.39-0.25c0,1.92-0.18,3.88-0.55,5.87
		c-0.37,1.99-0.87,3.54-1.51,4.63c-1.32,2.27-2.86,3.4-4.62,3.4c-0.49,0-0.9-0.07-1.23-0.2c-0.33-0.13-0.53-0.27-0.61-0.4l-0.1-0.2
		l0.24-2.86l-0.2-0.12c-0.28,0.71-0.48,1.16-0.59,1.35s-0.26,0.45-0.44,0.77c-0.18,0.32-0.35,0.55-0.5,0.68
		c-0.15,0.13-0.34,0.29-0.57,0.48C5.93,15.83,5.41,16,4.8,16c-0.61,0-1.11-0.07-1.49-0.2c-0.38-0.13-0.64-0.27-0.77-0.4l-0.2-0.2
		C2.7,10.75,2.9,6.88,2.94,3.6H1.4c0-0.31,0.07-0.59,0.2-0.86C2.49,2.63,3.3,2.42,4.02,2.1c0.19,0,0.35,0.08,0.5,0.25
		C4.67,2.52,4.74,2.73,4.74,3c-0.4,5.43-0.6,9.29-0.6,11.6H5.5c0.36,0,0.75-0.26,1.16-0.78c0.73-0.93,1.38-2.19,1.94-3.76
		c0.17-2.69,0.32-4.65,0.44-5.88c0.61-0.2,1.22-0.3,1.82-0.3c-0.21,1.03-0.33,1.75-0.34,2.16c-0.16,1.69-0.31,4.08-0.44,7.16
		l-0.06,1.4H11.42z"/>
	<path d="M26.43,12.68c-0.38,0.91-0.97,1.69-1.78,2.34C23.84,15.67,22.89,16,21.78,16c-2.28,0-3.42-1.24-3.42-3.72
		c0-0.93,0.19-1.85,0.57-2.76s0.97-1.69,1.78-2.34c0.81-0.65,1.76-0.98,2.87-0.98C25.86,6.2,27,7.44,27,9.92
		C27,10.85,26.81,11.77,26.43,12.68z M21.3,14.56l0.16,0.04h1.92c0.56-0.21,1.05-0.73,1.48-1.54c0.43-0.81,0.64-1.65,0.64-2.5
		c0-1.05-0.19-1.8-0.56-2.24c-0.33-0.39-0.63-0.61-0.88-0.68L23.9,7.6h-1.92c-0.56,0.21-1.05,0.73-1.48,1.54
		c-0.43,0.81-0.64,1.7-0.64,2.65s0.18,1.64,0.53,2.05C20.74,14.25,21.05,14.49,21.3,14.56z"/>
	<path d="M28.28,7.6c0-0.31,0.07-0.59,0.2-0.86c0.76-0.11,1.5-0.32,2.22-0.64c0.19,0,0.35,0.08,0.5,0.25
		c0.15,0.17,0.22,0.38,0.22,0.65l-0.34,2.4l0.2,0.12c0.33-0.76,0.85-1.5,1.55-2.23s1.38-1.09,2.03-1.09c0.25,0,0.48,0.05,0.69,0.16
		c0.21,0.11,0.35,0.21,0.43,0.32l0.12,0.16c-0.33,0.59-0.59,1.24-0.76,1.96l-0.1,0.34c-0.27,0.12-0.59,0.18-0.98,0.18
		c0.12-0.55,0.18-0.89,0.18-1.04c0-0.37-0.13-0.6-0.38-0.68c-0.29,0-0.75,0.38-1.38,1.13c-0.63,0.75-1.14,1.56-1.54,2.43
		c-0.17,2-0.34,3.55-0.5,4.64c-0.65,0.2-1.28,0.3-1.88,0.3c0.21-0.89,0.4-1.94,0.56-3.14c0.16-1.2,0.3-2.99,0.42-5.36H28.28z"/>
	<path d="M37,1.5c0-0.31,0.07-0.59,0.2-0.86c0.76-0.11,1.5-0.32,2.22-0.64c0.19,0,0.35,0.08,0.5,0.25c0.15,0.17,0.22,0.38,0.22,0.65
		l-1,8.96l0.2,0.12c0.41-0.95,1.03-1.81,1.84-2.6s1.73-1.18,2.76-1.18c0.49,0,0.89,0.07,1.18,0.2c0.29,0.13,0.46,0.27,0.5,0.4
		L45.7,7c-0.11,1.2-0.53,2.23-1.27,3.1c-0.74,0.87-1.44,1.43-2.09,1.7l1.84,2.8h1.96c0,0.31-0.07,0.59-0.2,0.86
		c-0.89,0.11-1.7,0.32-2.42,0.64c-0.32,0-0.57-0.16-0.74-0.48L40.66,12v-0.2c1.03-0.45,1.83-1.01,2.41-1.68
		c0.58-0.67,0.92-1.51,1.03-2.52h-1.22c-0.53,0-1.17,0.42-1.9,1.25c-0.73,0.83-1.33,1.75-1.78,2.75c-0.13,1.65-0.29,3.05-0.46,4.2
		c-0.65,0.2-1.28,0.3-1.88,0.3c0.21-0.89,0.35-1.55,0.4-1.96c0.27-1.96,0.67-6.17,1.2-12.64H37z"/>
</g>
</svg>
